<?xml version="1.0" encoding="UTF-8"?>
<svg xmlns="http://www.w3.org/2000/svg" xmlns:xlink="http://www.w3.org/1999/xlink" width="1170" height="2759" viewBox="0 0 1170 2759">
<path fill-rule="nonzero" fill="rgb(0%, 0%, 0%)" fill-opacity="1" d="M 579.902344 2129.535156 L 579.574219 2130.726562 C 578.324219 2136.28125 576.921875 2146.949219 575.371094 2162.722656 C 572.59375 2197.652344 571.28125 2217.414062 571.433594 2222.007812 C 571.726562 2220.886719 571.386719 2220.660156 570.40625 2221.320312 C 565.792969 2224.722656 561.183594 2228.535156 556.582031 2232.757812 C 551.375 2237.640625 546.859375 2243.046875 543.027344 2248.96875 C 536.988281 2258 533 2270.6875 531.0625 2287.035156 C 529.128906 2300.582031 529.203125 2331.109375 531.292969 2378.625 C 533.171875 2396.113281 537.660156 2409.679688 544.757812 2419.332031 C 568.207031 2449.699219 608.800781 2463.257812 666.535156 2460.007812 C 718.789062 2454.527344 749.941406 2433.816406 759.996094 2397.875 C 763.042969 2387.285156 764.71875 2371.410156 765.023438 2350.242188 C 765.585938 2312.925781 764.640625 2287.007812 762.191406 2272.476562 C 759.585938 2245.238281 747.859375 2226.03125 727.011719 2214.855469 C 728.09375 2215.8125 728.507812 2213.652344 728.25 2208.378906 L 724.359375 2163.816406 C 721.585938 2137.121094 718.941406 2117.382812 716.429688 2104.605469 L 716.632812 2111.730469 C 714.683594 2130.300781 713.769531 2143.292969 713.894531 2150.710938 C 713.496094 2194.5625 713.734375 2217.285156 714.613281 2218.871094 C 715.238281 2222.59375 716.171875 2224.910156 717.417969 2225.820312 L 731.410156 2238.515625 C 733.980469 2241.378906 736.238281 2245.136719 738.1875 2249.789062 C 741.203125 2255.21875 743.484375 2268.632812 745.03125 2290.035156 C 746.519531 2313.136719 746.59375 2339.570312 745.25 2369.332031 C 743.820312 2386.507812 741.0625 2398.503906 736.972656 2405.320312 C 722.691406 2428.039062 694.507812 2440.230469 652.417969 2441.890625 C 610.046875 2442.320312 579.335938 2431.164062 560.28125 2408.417969 C 554.25 2398.972656 550.855469 2388.089844 550.09375 2375.761719 C 548.433594 2332.585938 548.199219 2304.070312 549.386719 2290.214844 C 550.027344 2277.425781 552.671875 2266.683594 557.328125 2257.988281 C 561.046875 2250.542969 569.046875 2241.578125 581.328125 2231.085938 C 582.664062 2229.335938 583.675781 2226.558594 584.367188 2222.753906 C 585.183594 2180.996094 583.695312 2149.925781 579.902344 2129.535156 "/>
<path fill-rule="nonzero" fill="rgb(0%, 0%, 0%)" fill-opacity="1" d="M 569.988281 2428.078125 L 569.828125 2427.949219 C 559.203125 2421.890625 552.578125 2414.921875 549.949219 2407.046875 C 546.460938 2400.136719 545.535156 2378.679688 547.164062 2342.671875 C 543.675781 2337.246094 539.40625 2334.4375 534.359375 2334.246094 C 359.5625 2369.0625 248.824219 2401.496094 202.136719 2431.542969 C 159.824219 2457.625 138.433594 2493.84375 137.96875 2540.210938 C 135.796875 2587.972656 154.933594 2629.378906 195.382812 2664.425781 C 262.601562 2721.265625 417.183594 2752.625 659.125 2758.503906 C 847.394531 2761.800781 993.425781 2733.695312 1097.210938 2674.183594 C 1136.011719 2651.222656 1159.308594 2617.738281 1167.101562 2573.722656 C 1175.121094 2530.71875 1164.640625 2493.570312 1135.660156 2462.285156 C 1111.210938 2438.777344 1074.03125 2418.335938 1024.109375 2400.960938 C 916.894531 2365.339844 828.371094 2340.378906 758.53125 2326.082031 C 754.753906 2325.109375 751.238281 2328.527344 747.984375 2336.328125 C 751.097656 2366.871094 750.742188 2387.339844 746.921875 2397.742188 C 744.902344 2405.511719 737.882812 2415.445312 725.855469 2427.546875 C 754.65625 2417.003906 766.730469 2385.835938 762.070312 2334.042969 C 756.621094 2338.214844 755.9375 2340.652344 760.023438 2341.355469 L 951.820312 2397.101562 C 990.152344 2408.945312 1018.25 2418.515625 1036.128906 2425.8125 C 1079.320312 2443.511719 1107.699219 2459.820312 1121.289062 2474.738281 C 1143.558594 2495 1152.910156 2524.6875 1149.359375 2563.792969 C 1144.871094 2601.191406 1127.558594 2630.289062 1097.429688 2651.097656 C 1021.980469 2702.855469 900.046875 2732.152344 731.640625 2738.980469 C 632.371094 2741.085938 539.191406 2736.675781 452.113281 2725.753906 C 368.429688 2715.554688 303.429688 2700.082031 257.109375 2679.335938 C 206.714844 2658.277344 174.816406 2625.378906 161.410156 2580.640625 C 149.171875 2532.578125 160.199219 2492.421875 194.488281 2460.167969 C 210.398438 2445.71875 241.71875 2430.476562 288.445312 2414.445312 C 302.457031 2409.539062 326.355469 2402.464844 360.132812 2393.21875 L 532.324219 2349.707031 C 539.480469 2348.011719 540.089844 2346.277344 534.15625 2344.503906 C 531.726562 2399.335938 543.667969 2427.195312 569.988281 2428.078125 "/>
<path fill-rule="nonzero" fill="rgb(0%, 0%, 0%)" fill-opacity="1" d="M 166.710938 2516.988281 L 166.785156 2517.039062 C 166.757812 2517.472656 167.035156 2518.089844 167.617188 2518.894531 L 171.542969 2523.789062 L 181.316406 2534.644531 C 188.046875 2541.632812 194.808594 2548.023438 201.609375 2553.816406 C 214.1875 2564.800781 229.226562 2575.128906 246.730469 2584.796875 C 275.828125 2601.046875 313.265625 2613.777344 359.039062 2622.984375 C 487.339844 2646.65625 629.390625 2652.949219 785.195312 2641.863281 C 926.078125 2630.625 1024.609375 2606.691406 1080.800781 2570.066406 C 1115.808594 2546.988281 1141.261719 2524.089844 1157.148438 2501.367188 C 1158.789062 2495.039062 1154.441406 2486.851562 1144.121094 2476.804688 C 1133.679688 2464.429688 1121.871094 2453.867188 1108.671875 2445.113281 C 1086.21875 2431.066406 1060.730469 2420.132812 1032.210938 2412.304688 C 1074.828125 2437.511719 1097.789062 2451.953125 1101.109375 2455.636719 C 1115.148438 2466.496094 1128.808594 2481.761719 1142.101562 2501.433594 C 1142.640625 2502.0625 1142.761719 2500.90625 1142.441406 2497.953125 C 1141.890625 2495.492188 1141.191406 2494.980469 1140.320312 2496.410156 C 1115.949219 2519.617188 1100.230469 2533.632812 1093.171875 2538.460938 C 1080.070312 2548.242188 1068.96875 2555.539062 1059.871094 2560.355469 C 1007.769531 2591.203125 915.265625 2612.097656 782.34375 2623.039062 C 633.316406 2632.769531 502.058594 2628.128906 388.5625 2609.117188 C 338.234375 2600.445312 297.398438 2589.789062 266.054688 2577.148438 C 249.699219 2570.5625 234 2562.589844 218.957031 2553.230469 C 214.300781 2550.773438 198.925781 2540.027344 172.820312 2520.984375 C 168.148438 2517.703125 166.046875 2516.550781 166.515625 2517.519531 C 166.6875 2517.695312 166.75 2517.515625 166.710938 2516.988281 "/>
<path fill-rule="nonzero" fill="rgb(0%, 0%, 0%)" fill-opacity="1" d="M 574.40625 1590.640625 L 574.351562 1590.679688 C 569.457031 1669.199219 566.964844 1740.871094 566.867188 1805.699219 L 568.464844 2174.636719 L 567.699219 2206.742188 C 567.800781 2216.839844 568.511719 2225.050781 569.828125 2231.375 C 573.597656 2254.582031 588.042969 2268.8125 613.164062 2274.066406 C 650.738281 2279.878906 681.515625 2275.679688 705.5 2261.460938 C 721.554688 2253.324219 729.183594 2228.960938 728.386719 2188.367188 L 721.941406 1582.371094 C 721.820312 1568.109375 720.847656 1562.761719 719.023438 1566.339844 C 832.28125 1552.441406 895.511719 1526.429688 908.707031 1488.308594 C 918.421875 1471.949219 923.492188 1443.480469 923.910156 1402.890625 C 922.371094 1302.851562 918.242188 1230.5 911.519531 1185.839844 C 907.976562 1194.941406 905.457031 1275.808594 903.953125 1428.421875 C 901.746094 1452.960938 897.65625 1470.121094 891.6875 1479.898438 C 883.589844 1496 868.53125 1508.640625 846.515625 1517.828125 C 820.257812 1529.121094 777.1875 1539.460938 717.300781 1548.851562 C 709.339844 1552.828125 704.84375 1558.339844 703.8125 1565.371094 C 703.0625 1568.859375 702.757812 1573.210938 702.90625 1578.429688 L 709.503906 2176.914062 C 709.777344 2214.546875 706.714844 2235.800781 700.320312 2240.675781 C 687.8125 2253.8125 663.601562 2259.296875 627.6875 2257.121094 C 603.640625 2255.152344 590.617188 2245.625 588.613281 2228.542969 C 587.375 2222.523438 586.734375 2215.21875 586.691406 2206.632812 L 587.40625 2167.5625 L 586.179688 1958.484375 C 585.921875 1898.875 585.265625 1847.875 584.214844 1805.492188 C 581.746094 1698.558594 578.476562 1626.941406 574.40625 1590.640625 "/>
<path fill-rule="nonzero" fill="rgb(0%, 0%, 0%)" fill-opacity="1" d="M 759.609375 1249.511719 L 759.574219 1249.648438 C 759.179688 1249.160156 758.417969 1254.679688 757.292969 1266.210938 L 751.714844 1343.910156 C 749.789062 1359.609375 747.96875 1370.660156 746.257812 1377.050781 C 741.175781 1399.898438 730.714844 1414.699219 714.878906 1421.449219 C 706.757812 1426 691.453125 1430.769531 668.964844 1435.769531 C 667.210938 1436.609375 614.03125 1447.070312 509.425781 1467.171875 L 441.421875 1481.710938 C 439.269531 1482.191406 437.574219 1482.898438 436.332031 1483.851562 C 437.292969 1468.761719 436.183594 1448.488281 433.007812 1423.050781 C 429.945312 1441.539062 428.011719 1460.808594 427.210938 1480.859375 C 427.597656 1489.441406 430.339844 1493.621094 435.4375 1493.390625 C 462.925781 1492.289062 521.554688 1483.421875 611.332031 1466.769531 C 649.027344 1459.558594 674.195312 1454.320312 686.832031 1451.070312 C 700.023438 1448.019531 712.285156 1443.769531 723.613281 1438.308594 C 744.726562 1427.769531 757.5625 1408.609375 762.125 1380.828125 C 764.859375 1368.570312 766.101562 1348.351562 765.847656 1320.171875 C 765.683594 1309.121094 764.933594 1295.148438 763.601562 1278.25 L 761.824219 1262.011719 L 760 1250.539062 L 759.609375 1249.511719 "/>
<path fill-rule="nonzero" fill="rgb(0%, 0%, 0%)" fill-opacity="1" d="M 872.953125 1206.148438 L 873.117188 1206.230469 C 871.582031 1211.539062 870.203125 1222 868.972656 1237.609375 L 859.871094 1367.519531 C 858.726562 1380.550781 856.816406 1395.710938 854.148438 1413.011719 C 849.851562 1439.480469 842.425781 1455.96875 831.867188 1462.5 C 825.753906 1468.519531 807.953125 1474.691406 778.460938 1481.011719 C 676.730469 1502.25 607.996094 1514.828125 572.261719 1518.769531 C 509.335938 1528.300781 469.183594 1525.039062 451.808594 1509 C 441.128906 1498.28125 436.113281 1471.691406 436.753906 1429.25 C 437.917969 1010.160156 439.355469 787.699219 441.066406 761.871094 C 440.957031 714.449219 439.378906 681.28125 436.320312 662.351562 C 431.882812 624.378906 420.140625 598.390625 401.097656 584.390625 C 376.167969 569.28125 352.367188 570.589844 329.703125 588.308594 C 309.679688 604.679688 298.414062 634.308594 295.902344 677.191406 C 293.292969 756.859375 284.886719 925.75 270.6875 1183.851562 C 268.503906 1247.269531 268.355469 1300.398438 270.246094 1343.230469 C 275.0625 1481.910156 309.410156 1563.390625 373.277344 1587.679688 C 420.078125 1609.089844 483.941406 1608.898438 564.859375 1587.121094 C 477.421875 1594.46875 415.40625 1588.53125 378.816406 1569.289062 C 341.871094 1551.53125 316.632812 1514.621094 303.105469 1458.558594 C 288.519531 1404.679688 284.5 1301.621094 291.046875 1149.398438 C 303.75 928.621094 311.714844 771.308594 314.9375 677.441406 C 317.617188 640.089844 326.304688 615.480469 341.003906 603.578125 C 383.679688 576.28125 409.695312 601.230469 419.042969 678.441406 C 421.464844 706.980469 422.476562 736.308594 422.074219 766.421875 C 420.355469 786.230469 418.929688 1007.890625 417.800781 1431.410156 C 417.621094 1479.808594 424.089844 1509.679688 437.207031 1521.03125 C 455.238281 1541.609375 494.894531 1547.871094 556.179688 1539.789062 C 603.554688 1534.929688 678.746094 1521.570312 781.75 1499.730469 C 813.316406 1493.179688 833.667969 1485.941406 842.800781 1478.011719 C 860.503906 1467.25 871.503906 1439.550781 875.800781 1394.910156 C 880.726562 1326.800781 879.777344 1263.878906 872.953125 1206.148438 "/>
<path fill-rule="nonzero" fill="rgb(0%, 0%, 0%)" fill-opacity="1" d="M 517.246094 1594.5 L 517.15625 1594.371094 L 516.992188 1593.929688 C 516.929688 1593.960938 516.976562 1593.988281 517.132812 1594.011719 L 509.902344 1593.21875 L 471.425781 1590.699219 L 455.046875 1588.160156 C 441.667969 1585.21875 431.046875 1580.96875 423.1875 1575.410156 C 406.089844 1564.570312 395.773438 1542.769531 392.238281 1510 C 386.875 1469.691406 384.960938 1396.671875 386.492188 1290.921875 C 386.765625 1231.820312 392.105469 1060.359375 402.511719 776.53125 C 402.878906 761.761719 402.992188 745.289062 402.859375 727.121094 C 402.492188 676.019531 396.53125 641.371094 384.988281 623.171875 C 375.839844 610.921875 361.335938 606.878906 341.480469 611.039062 C 360.664062 613.300781 372.289062 618.351562 376.347656 626.179688 C 382.238281 635.570312 385.554688 655 386.292969 684.480469 C 386.617188 693.480469 386.558594 703.808594 386.109375 715.441406 L 383.652344 772.578125 C 376.015625 988.390625 372.097656 1101.460938 371.898438 1111.789062 C 370.308594 1159.308594 368.964844 1211.230469 367.867188 1267.570312 C 365.929688 1391.371094 367.605469 1471.320312 372.886719 1507.429688 C 378.121094 1547.960938 392.101562 1574.558594 414.832031 1587.230469 C 428.5 1594.960938 443.367188 1599.171875 459.4375 1599.859375 C 470.417969 1600.378906 480.015625 1600.179688 488.230469 1599.28125 L 505.460938 1596.980469 L 517.03125 1594.570312 C 516.730469 1594.53125 516.691406 1594.398438 516.910156 1594.179688 L 517.246094 1594.5 "/>
<path fill-rule="nonzero" fill="rgb(0%, 0%, 0%)" fill-opacity="1" d="M 751.875 1252.929688 L 751.824219 1252.910156 C 748.414062 1252.820312 739.890625 1254.109375 726.25 1256.78125 C 669.878906 1269.238281 633.75 1276.828125 617.855469 1279.53125 C 594.628906 1283.640625 574.765625 1286.359375 558.257812 1287.699219 C 517.027344 1291.28125 483.453125 1288.46875 457.535156 1279.28125 C 445.222656 1274.800781 438.222656 1266.878906 436.535156 1255.519531 C 434.59375 1189.839844 432.203125 1147.371094 429.367188 1128.140625 L 424.925781 1164.871094 L 423.25 1187.339844 L 420.152344 1245.691406 C 419.898438 1250.488281 420.179688 1255.621094 421 1261.089844 C 423.214844 1277.839844 435.035156 1290.308594 456.460938 1298.511719 C 486.886719 1308.980469 527.664062 1310.910156 578.792969 1304.269531 C 602.378906 1300.839844 630.988281 1294.171875 664.621094 1284.289062 C 710.898438 1270.058594 739.980469 1259.609375 751.875 1252.929688 "/>
<path fill-rule="nonzero" fill="rgb(0%, 0%, 0%)" fill-opacity="1" d="M 281.269531 1322.578125 L 281.425781 1322.808594 C 283.695312 1257 287.550781 1187.511719 293 1114.339844 C 276.480469 1101.5 261.925781 1078.921875 249.34375 1046.609375 C 173.832031 839.070312 110.246094 675.070312 58.582031 554.628906 C 30.261719 482.269531 17.21875 420.980469 19.449219 370.75 C 22.65625 303.609375 53.589844 240.269531 112.25 180.71875 C 171.75 122.371094 241.34375 82.039062 321.035156 59.71875 C 429.109375 29.011719 531.777344 15.730469 629.035156 19.890625 C 705.6875 24.238281 761.277344 45.070312 795.808594 82.351562 C 825.117188 106.960938 860.554688 167.378906 902.121094 263.589844 L 1083.75 710.460938 C 1106.421875 767.730469 1124.429688 823.640625 1137.769531 878.210938 C 1164.28125 993.03125 1137.820312 1072.269531 1058.398438 1115.921875 C 1016.558594 1143.691406 953.144531 1165.230469 868.164062 1180.550781 C 788.949219 1193.730469 722.828125 1193.75 669.796875 1180.621094 C 608.195312 1165.621094 559.546875 1117.601562 523.847656 1036.558594 C 506.371094 1002.320312 479.097656 938.691406 442.035156 845.660156 C 438.078125 768.359375 434.449219 719.589844 431.144531 699.320312 C 425.675781 747.691406 423.867188 798.398438 425.722656 851.429688 C 481.941406 1001.769531 527.105469 1095.671875 561.210938 1133.128906 C 610.132812 1199.601562 706.863281 1222.679688 851.398438 1202.371094 C 1013.058594 1177 1112.238281 1125.039062 1148.960938 1046.5 C 1177.609375 998.019531 1172.339844 913.199219 1133.140625 792.03125 C 1141.640625 800.769531 1073.019531 628.160156 927.269531 274.210938 C 895.070312 197.421875 867.578125 143.238281 844.785156 111.671875 C 805.21875 54.679688 756.007812 20.679688 697.148438 9.679688 C 622.484375 -5.808594 525.898438 -2.710938 407.394531 18.988281 C 226.730469 49.320312 99.652344 132.460938 26.164062 268.429688 C -2.257812 329.789062 -7.523438 395.121094 10.367188 464.441406 C 17.398438 494.230469 28.257812 528.441406 42.949219 567.058594 C 97.6875 694.941406 158.910156 853.050781 226.617188 1041.371094 C 245.449219 1089.789062 262.675781 1116.820312 278.292969 1122.460938 C 275.050781 1116.691406 273.722656 1116.570312 274.300781 1122.089844 C 272.152344 1155.699219 271.1875 1187.339844 271.402344 1217.019531 C 273.042969 1270.75 276.332031 1305.941406 281.269531 1322.578125 "/>
<path fill-rule="nonzero" fill="rgb(0%, 0%, 0%)" fill-opacity="1" d="M 307.238281 719.148438 L 307.320312 719.269531 C 308.980469 714.410156 310.871094 698.441406 313 671.328125 L 321.289062 626.371094 L 340.09375 602.910156 C 342.609375 599.25 343.617188 595.199219 343.113281 590.769531 C 343.660156 590.148438 337.222656 572.578125 323.808594 538.050781 L 238.785156 326.859375 C 230.078125 304.628906 222.902344 284.789062 217.257812 267.339844 C 203.027344 225.878906 198.234375 190.800781 202.871094 162.089844 C 204.550781 146.960938 212.296875 125.019531 226.117188 96.269531 C 225.320312 97.179688 226.511719 96.96875 229.691406 95.660156 C 265.734375 80.070312 291.765625 69.261719 307.78125 63.21875 L 406.851562 27.308594 C 350.132812 33.359375 286.574219 51.238281 216.175781 80.960938 C 213.886719 78.359375 207.222656 90.359375 196.175781 116.980469 C 190.257812 131.351562 186.195312 145.671875 183.984375 159.949219 C 178.886719 191.398438 184.25 230.058594 200.078125 275.910156 C 208.117188 300.25 218.984375 329.269531 232.671875 362.960938 L 305.347656 542.96875 C 318.019531 573.160156 325.414062 590.25 327.519531 594.230469 C 325.394531 595.800781 319.660156 603.238281 310.320312 616.558594 C 309.078125 618.289062 308.046875 621.511719 307.226562 626.21875 C 305.070312 645.800781 303.742188 661.179688 303.25 672.359375 C 303.347656 678.640625 303.765625 686.621094 304.507812 696.308594 L 306.230469 712.878906 C 306.945312 718.679688 307.28125 720.769531 307.238281 719.148438 "/>
<path fill-rule="nonzero" fill="rgb(0%, 0%, 0%)" fill-opacity="1" d="M 672.296875 263.960938 C 600.960938 256.988281 535.246094 250.828125 479.117188 264.109375 C 423.5 277.261719 375.539062 309.960938 322.996094 346.179688 C 311.492188 354.109375 295.746094 351.210938 287.816406 339.710938 C 279.890625 328.210938 282.785156 312.460938 294.289062 304.53125 C 345.378906 269.320312 401.054688 230.589844 467.476562 214.878906 C 533.390625 199.300781 608.113281 206.859375 677.21875 213.621094 C 691.121094 214.980469 701.289062 227.351562 699.929688 241.25 C 698.570312 255.148438 686.199219 265.320312 672.296875 263.960938 Z M 672.296875 263.960938 "/>
<path fill-rule="nonzero" fill="rgb(0%, 0%, 0%)" fill-opacity="1" d="M 717.488281 375.691406 C 646.152344 368.710938 580.4375 362.558594 524.308594 375.828125 C 468.691406 388.980469 420.730469 421.691406 368.183594 457.910156 C 356.683594 465.839844 340.9375 462.941406 333.007812 451.441406 C 325.082031 439.941406 327.976562 424.191406 339.476562 416.261719 C 390.570312 381.050781 446.246094 342.308594 512.667969 326.609375 C 578.582031 311.019531 653.304688 318.589844 722.410156 325.339844 C 736.308594 326.699219 746.476562 339.070312 745.121094 352.980469 C 743.761719 366.878906 731.390625 377.050781 717.488281 375.691406 Z M 717.488281 375.691406 "/>
<path fill-rule="nonzero" fill="rgb(0%, 0%, 0%)" fill-opacity="1" d="M 755.882812 479.570312 C 681.964844 477.328125 613.371094 475.480469 558.011719 490.789062 C 503.5625 505.851562 460.433594 538.011719 413.09375 573.691406 C 401.9375 582.089844 386.082031 579.871094 377.671875 568.710938 C 369.265625 557.558594 371.496094 541.699219 382.648438 533.289062 C 428.914062 498.429688 479.386719 460.050781 544.53125 442.039062 C 608.761719 424.28125 685.75 426.839844 757.414062 429.011719 C 771.375 429.429688 782.351562 441.089844 781.929688 455.050781 C 781.503906 469.011719 769.84375 479.988281 755.882812 479.570312 Z M 755.882812 479.570312 "/>
<path fill-rule="nonzero" fill="rgb(0%, 0%, 0%)" fill-opacity="1" d="M 745.9375 589.070312 C 700.109375 588.558594 658.429688 588.25 623.449219 596.511719 C 589.089844 604.628906 560.0625 621.339844 527.496094 640.300781 C 515.425781 647.320312 499.941406 643.238281 492.914062 631.171875 C 485.886719 619.089844 489.972656 603.609375 502.046875 596.589844 C 533.773438 578.109375 569.035156 557.390625 611.824219 547.28125 C 653.992188 537.320312 702.316406 538 746.492188 538.488281 C 760.460938 538.640625 771.65625 550.089844 771.503906 564.058594 C 771.351562 578.019531 759.902344 589.21875 745.9375 589.070312 Z M 745.9375 589.070312 "/>
<path fill-rule="nonzero" fill="rgb(0%, 0%, 0%)" fill-opacity="1" d="M 854.871094 692.191406 C 852.113281 693.359375 849.175781 694.03125 846.183594 694.171875 C 771.8125 697.660156 701.65625 701.089844 645.25 717.648438 C 589.730469 733.949219 546.492188 763.351562 499.828125 795.308594 C 488.304688 803.199219 472.5625 800.25 464.671875 788.730469 C 456.78125 777.199219 459.726562 761.460938 471.25 753.570312 C 517.265625 722.058594 566.707031 688 631.003906 669.121094 C 694.417969 650.5 771.226562 647.050781 843.816406 643.648438 L 835.132812 645.621094 C 847.992188 640.171875 862.835938 646.179688 868.285156 659.039062 C 873.738281 671.898438 867.730469 686.75 854.871094 692.191406 Z M 854.871094 692.191406 "/>
<path fill-rule="nonzero" fill="rgb(0%, 0%, 0%)" fill-opacity="1" d="M 898.582031 800.011719 C 896.960938 800.488281 895.300781 800.808594 893.617188 800.949219 C 822.984375 807.128906 755.792969 813.121094 698.363281 830.519531 C 641.375 847.789062 593.066406 876.621094 541.855469 907.320312 C 529.875 914.5 514.339844 910.609375 507.160156 898.628906 C 499.976562 886.648438 503.867188 871.121094 515.84375 863.941406 C 566.382812 833.640625 619.824219 801.460938 683.691406 782.109375 C 747.117188 762.890625 819.886719 756.628906 889.210938 750.570312 L 884.246094 751.5 C 897.640625 747.550781 911.710938 755.191406 915.667969 768.589844 C 919.625 781.988281 911.976562 796.058594 898.582031 800.011719 Z M 898.582031 800.011719 "/>
<path fill-rule="nonzero" fill="rgb(0%, 0%, 0%)" fill-opacity="1" d="M 935.734375 907.738281 C 933.058594 909.011719 930.179688 909.800781 927.230469 910.078125 L 927.226562 910.078125 L 926.996094 910.101562 L 927 910.101562 C 868.503906 915.550781 813.023438 920.820312 756.570312 938.941406 C 699.65625 957.21875 640.925781 988.789062 579.5625 1021.878906 C 567.265625 1028.511719 551.925781 1023.910156 545.296875 1011.621094 C 538.667969 999.320312 543.261719 983.980469 555.554688 977.359375 C 615.917969 944.808594 678.910156 910.75 741.105469 890.78125 C 803.605469 870.71875 864.464844 865.121094 922.308594 859.730469 L 922.3125 859.730469 L 922.542969 859.710938 L 914.035156 862.050781 C 926.652344 856.058594 941.738281 861.429688 947.730469 874.039062 C 953.722656 886.660156 948.351562 901.75 935.734375 907.738281 Z M 935.734375 907.738281 "/>
<path fill-rule="nonzero" fill="rgb(0%, 0%, 0%)" fill-opacity="1" d="M 1128.941406 881.171875 L 1045.761719 893.398438 C 1031.941406 895.429688 1019.089844 885.871094 1017.058594 872.058594 C 1015.03125 858.230469 1024.578125 845.390625 1038.398438 843.359375 L 1121.578125 831.121094 C 1135.398438 829.089844 1148.25 838.648438 1150.28125 852.46875 C 1152.320312 866.28125 1142.761719 879.140625 1128.941406 881.171875 Z M 1128.941406 881.171875 "/>
<path fill-rule="nonzero" fill="rgb(0%, 0%, 0%)" fill-opacity="1" d="M 999.398438 740.558594 L 1091.261719 730.019531 C 1105.128906 728.429688 1117.679688 738.390625 1119.269531 752.269531 C 1120.859375 766.140625 1110.898438 778.679688 1097.019531 780.269531 L 1005.160156 790.808594 C 991.285156 792.398438 978.746094 782.441406 977.152344 768.558594 C 975.5625 754.691406 985.519531 742.148438 999.398438 740.558594 Z M 999.398438 740.558594 "/>
<path fill-rule="nonzero" fill="rgb(0%, 0%, 0%)" fill-opacity="1" d="M 964.242188 682.570312 L 955.988281 632.871094 L 1051.558594 625.660156 C 1065.480469 624.609375 1077.628906 635.050781 1078.679688 648.980469 C 1079.730469 662.910156 1069.289062 675.050781 1055.359375 676.101562 L 959.796875 683.308594 C 946.738281 684.300781 935.089844 675.148438 932.941406 662.230469 C 930.796875 649.320312 938.867188 636.898438 951.542969 633.609375 C 965.0625 630.109375 978.867188 638.21875 982.375 651.738281 C 985.878906 665.261719 977.761719 679.070312 964.242188 682.570312 Z M 964.242188 682.570312 "/>
<path fill-rule="nonzero" fill="rgb(0%, 0%, 0%)" fill-opacity="1" d="M 1014.761719 576.210938 L 970.875 580.050781 C 956.960938 581.269531 944.695312 570.96875 943.480469 557.058594 C 942.265625 543.140625 952.558594 530.871094 966.472656 529.660156 L 1010.359375 525.828125 C 1024.269531 524.609375 1036.539062 534.910156 1037.75 548.820312 C 1038.96875 562.730469 1028.679688 575 1014.761719 576.210938 Z M 1014.761719 576.210938 "/>
<path fill-rule="nonzero" fill="rgb(0%, 0%, 0%)" fill-opacity="1" d="M 973.085938 478 L 873.648438 478.621094 C 859.679688 478.710938 848.285156 467.460938 848.195312 453.488281 C 848.109375 439.53125 859.359375 428.128906 873.328125 428.039062 L 972.765625 427.410156 C 986.730469 427.328125 998.125 438.578125 998.214844 452.550781 C 998.304688 466.511719 987.050781 477.910156 973.085938 478 Z M 973.085938 478 "/>
<path fill-rule="nonzero" fill="rgb(0%, 0%, 0%)" fill-opacity="1" d="M 929.683594 375.761719 L 832.109375 377.03125 C 818.140625 377.210938 806.671875 366.039062 806.488281 352.070312 C 806.304688 338.109375 817.480469 326.640625 831.449219 326.449219 L 929.023438 325.179688 C 942.988281 325 954.460938 336.171875 954.640625 350.140625 C 954.824219 364.109375 943.648438 375.578125 929.683594 375.761719 Z M 929.683594 375.761719 "/>
<path fill-rule="nonzero" fill="rgb(0%, 0%, 0%)" fill-opacity="1" d="M 885.792969 272.261719 L 793.789062 268.78125 C 779.832031 268.25 768.945312 256.511719 769.472656 242.550781 C 770.003906 228.589844 781.746094 217.710938 795.703125 218.230469 L 887.707031 221.71875 C 901.664062 222.25 912.550781 233.988281 912.023438 247.941406 C 911.496094 261.910156 899.75 272.789062 885.792969 272.261719 Z M 885.792969 272.261719 "/>
<path fill-rule="nonzero" fill="rgb(0%, 0%, 0%)" fill-opacity="1" d="M 31.285156 470.238281 L 182.402344 373.738281 C 194.175781 366.21875 209.8125 369.671875 217.332031 381.441406 C 224.847656 393.210938 221.398438 408.851562 209.628906 416.371094 L 58.507812 512.871094 C 46.734375 520.390625 31.097656 516.941406 23.582031 505.171875 C 16.0625 493.398438 19.511719 477.761719 31.285156 470.238281 Z M 31.285156 470.238281 "/>
<path fill-rule="nonzero" fill="rgb(0%, 0%, 0%)" fill-opacity="1" d="M 71.707031 575.539062 L 226.367188 481.480469 C 238.304688 474.21875 253.859375 478.019531 261.117188 489.949219 C 268.375 501.878906 264.585938 517.441406 252.652344 524.699219 L 97.988281 618.75 C 86.054688 626.011719 70.496094 622.21875 63.238281 610.289062 C 55.980469 598.359375 59.773438 582.800781 71.707031 575.539062 Z M 71.707031 575.539062 "/>
<path fill-rule="nonzero" fill="rgb(0%, 0%, 0%)" fill-opacity="1" d="M 114.828125 683.160156 L 251.691406 599.601562 C 263.613281 592.320312 279.175781 596.078125 286.457031 608 C 293.734375 619.929688 289.96875 635.488281 278.050781 642.769531 L 141.1875 726.328125 C 129.265625 733.609375 113.699219 729.851562 106.421875 717.929688 C 99.144531 706 102.90625 690.441406 114.828125 683.160156 Z M 114.828125 683.160156 "/>
<path fill-rule="nonzero" fill="rgb(0%, 0%, 0%)" fill-opacity="1" d="M 157.21875 788.199219 L 257.761719 734.191406 C 270.066406 727.578125 285.398438 732.191406 292.011719 744.5 C 298.621094 756.808594 294.003906 772.140625 281.699219 778.75 L 181.15625 832.761719 C 168.851562 839.371094 153.519531 834.75 146.910156 822.449219 C 140.296875 810.140625 144.914062 794.808594 157.21875 788.199219 Z M 157.21875 788.199219 "/>
<path fill-rule="nonzero" fill="rgb(0%, 0%, 0%)" fill-opacity="1" d="M 199.136719 902.789062 L 266.5625 860.339844 C 278.382812 852.898438 293.996094 856.449219 301.4375 868.269531 C 308.878906 880.089844 305.332031 895.699219 293.511719 903.148438 L 226.085938 945.589844 C 214.265625 953.03125 198.652344 949.488281 191.210938 937.671875 C 183.769531 925.851562 187.316406 910.230469 199.136719 902.789062 Z M 199.136719 902.789062 "/>
<path fill-rule="nonzero" fill="rgb(0%, 0%, 0%)" fill-opacity="1" d="M 894.125 549.679688 C 895.804688 567.621094 882.621094 583.539062 864.671875 585.21875 C 846.726562 586.898438 830.8125 573.710938 829.132812 555.769531 C 827.449219 537.820312 840.632812 521.910156 858.582031 520.230469 C 876.527344 518.550781 892.441406 531.730469 894.125 549.679688 Z M 894.125 549.679688 "/>
<path fill-rule="nonzero" fill="rgb(0%, 0%, 0%)" fill-opacity="1" d="M 786.75 148.289062 C 779.515625 134.390625 772.539062 120.988281 762.910156 106.21875 C 753.226562 91.371094 741.125 75.550781 727.15625 63.019531 C 713.148438 50.441406 696.882812 40.789062 679.402344 30.460938 C 673.734375 27.109375 671.851562 19.800781 675.203125 14.128906 C 678.550781 8.460938 685.863281 6.578125 691.53125 9.929688 C 708.671875 20.058594 727.027344 30.859375 743.085938 45.269531 C 759.183594 59.71875 772.59375 77.410156 782.886719 93.199219 C 793.234375 109.070312 800.699219 123.429688 807.90625 137.289062 C 810.945312 143.128906 808.671875 150.328125 802.832031 153.371094 C 796.988281 156.410156 789.789062 154.140625 786.75 148.289062 Z M 786.75 148.289062 "/>
<path fill-rule="nonzero" fill="rgb(0%, 0%, 0%)" fill-opacity="1" d="M 736.847656 126.621094 L 721.964844 143 C 712.839844 124.160156 704.125 106.230469 692.632812 89.320312 C 681.113281 72.378906 666.878906 56.609375 653.347656 46.070312 C 639.996094 35.671875 626.960938 30.019531 612.542969 23.839844 C 606.488281 21.238281 603.6875 14.230469 606.285156 8.179688 C 608.882812 2.121094 615.894531 -0.679688 621.945312 1.921875 C 636.253906 8.058594 651.941406 14.738281 668.003906 27.261719 C 683.890625 39.640625 699.75 57.378906 712.355469 75.921875 C 724.980469 94.488281 734.410156 114 743.425781 132.601562 C 745.550781 136.980469 744.796875 142.210938 741.519531 145.820312 C 738.246094 149.421875 733.109375 150.679688 728.546875 148.980469 C 722.371094 146.691406 719.226562 139.820312 721.519531 133.648438 C 723.8125 127.480469 730.675781 124.328125 736.847656 126.621094 Z M 736.847656 126.621094 "/>
<path fill-rule="nonzero" fill="rgb(0%, 0%, 0%)" fill-opacity="1" d="M 677.296875 123.480469 L 660.398438 139.351562 C 651.222656 123.191406 642.347656 107.589844 630.742188 91.28125 C 619.042969 74.839844 604.84375 58.070312 591.644531 46.910156 C 578.703125 35.960938 566.355469 30.058594 552.695312 23.570312 C 546.746094 20.75 544.210938 13.640625 547.035156 7.691406 C 549.855469 1.738281 556.96875 -0.789062 562.917969 2.03125 C 576.542969 8.5 591.480469 15.53125 607.042969 28.699219 C 622.347656 41.640625 637.863281 60.160156 650.175781 77.460938 C 662.578125 94.890625 672.007812 111.5 681.132812 127.570312 C 683.851562 132.359375 682.941406 138.378906 678.929688 142.148438 C 674.914062 145.921875 668.84375 146.449219 664.238281 143.441406 C 658.726562 139.828125 657.183594 132.441406 660.789062 126.929688 C 664.394531 121.421875 671.785156 119.871094 677.296875 123.480469 Z M 677.296875 123.480469 "/>
<path fill-rule="nonzero" fill="rgb(0%, 0%, 0%)" fill-opacity="1" d="M 594.539062 131.140625 C 586.464844 113.960938 578.914062 97.960938 568.574219 83.621094 C 558.253906 69.300781 545 56.460938 532.523438 47.628906 C 520.179688 38.890625 508.417969 33.929688 495.476562 28.511719 C 489.402344 25.960938 486.542969 18.980469 489.085938 12.898438 C 491.628906 6.828125 498.617188 3.96875 504.691406 6.511719 C 517.53125 11.890625 531.558594 17.730469 546.300781 28.160156 C 560.910156 38.5 576.050781 53.210938 587.917969 69.679688 C 599.769531 86.121094 608.203125 104.148438 616.121094 121 C 618.921875 126.960938 616.359375 134.070312 610.398438 136.871094 C 604.4375 139.660156 597.335938 137.109375 594.539062 131.140625 Z M 594.539062 131.140625 "/>
<path fill-rule="nonzero" fill="rgb(0%, 0%, 0%)" fill-opacity="1" d="M 550.308594 114.121094 L 532.523438 129.378906 C 522.582031 112.078125 513.183594 95.78125 502.304688 82.121094 C 491.492188 68.558594 479.210938 57.640625 468.203125 50.640625 C 457.355469 43.730469 447.429688 40.398438 436.1875 36.671875 C 429.9375 34.601562 426.554688 27.851562 428.628906 21.601562 C 430.699219 15.351562 437.449219 11.960938 443.699219 14.039062 C 454.890625 17.75 467.394531 21.859375 481.007812 30.519531 C 494.460938 39.078125 508.671875 51.859375 520.953125 67.269531 C 533.164062 82.589844 543.453125 100.539062 553.199219 117.5 C 556.054688 122.460938 554.972656 128.761719 550.625 132.488281 C 546.277344 136.21875 539.890625 136.328125 535.414062 132.75 C 530.273438 128.640625 529.4375 121.128906 533.550781 115.988281 C 537.664062 110.851562 545.164062 110.011719 550.308594 114.121094 Z M 550.308594 114.121094 "/>
<path fill-rule="nonzero" fill="rgb(0%, 0%, 0%)" fill-opacity="1" d="M 882.355469 995.398438 L 882.359375 995.46875 C 883.539062 1025.359375 885.058594 1058.691406 870.882812 1089.679688 C 856.925781 1120.191406 828.117188 1147.390625 801.835938 1172.441406 C 797.070312 1176.980469 789.523438 1176.800781 784.980469 1172.03125 C 780.4375 1167.261719 780.617188 1159.710938 785.386719 1155.171875 C 812.730469 1129.121094 837.550781 1105.21875 849.199219 1079.761719 C 860.613281 1054.808594 859.753906 1027.339844 858.53125 996.421875 L 858.527344 996.339844 C 858.269531 989.761719 863.390625 984.21875 869.972656 983.960938 C 876.550781 983.699219 882.09375 988.820312 882.355469 995.398438 Z M 882.355469 995.398438 "/>
<path fill-rule="nonzero" fill="rgb(0%, 0%, 0%)" fill-opacity="1" d="M 943.007812 988.769531 L 943.871094 983.339844 C 945.941406 1010.800781 948.496094 1041.738281 934.371094 1072.539062 C 920.621094 1102.519531 891.335938 1131.460938 864.472656 1158.230469 C 859.808594 1162.871094 852.257812 1162.859375 847.609375 1158.191406 C 842.960938 1153.53125 842.976562 1145.980469 847.640625 1141.339844 C 875.597656 1113.480469 901.136719 1087.808594 912.695312 1062.601562 C 923.878906 1038.21875 922.226562 1013.421875 920.089844 985.140625 C 919.949219 983.28125 920.246094 981.421875 920.953125 979.699219 C 923.457031 973.609375 930.425781 970.710938 936.515625 973.210938 C 942.605469 975.710938 945.511719 982.679688 943.007812 988.769531 Z M 943.007812 988.769531 "/>
<path fill-rule="nonzero" fill="rgb(0%, 0%, 0%)" fill-opacity="1" d="M 1002.421875 983.03125 L 1003.308594 978.269531 C 1003.828125 1004.398438 1004.570312 1033.558594 991.347656 1062.648438 C 978.417969 1091.078125 952.386719 1118.660156 928.421875 1144.230469 C 923.921875 1149.03125 916.375 1149.269531 911.570312 1144.769531 C 906.765625 1140.269531 906.519531 1132.71875 911.023438 1127.921875 C 935.886719 1101.390625 958.683594 1076.871094 969.640625 1052.769531 C 980.300781 1029.339844 980 1005.550781 979.46875 978.730469 C 979.4375 977.101562 979.742188 975.480469 980.363281 973.960938 C 982.867188 967.871094 989.835938 964.96875 995.925781 967.46875 C 1002.019531 969.980469 1004.921875 976.941406 1002.421875 983.03125 Z M 1002.421875 983.03125 "/>
<path fill-rule="nonzero" fill="rgb(0%, 0%, 0%)" fill-opacity="1" d="M 1055.941406 970.320312 L 1056.738281 966.171875 C 1056.390625 996.628906 1056.191406 1030.320312 1041.730469 1060.839844 C 1027.441406 1091.039062 999.597656 1117.179688 974.140625 1141.289062 C 969.359375 1145.808594 961.8125 1145.609375 957.285156 1140.828125 C 952.757812 1136.050781 952.960938 1128.5 957.742188 1123.96875 C 984.15625 1098.960938 1008.179688 1075.980469 1020.179688 1050.640625 C 1032.019531 1025.628906 1032.539062 997.371094 1032.898438 965.890625 C 1032.910156 964.480469 1033.179688 963.070312 1033.691406 961.75 C 1036.058594 955.601562 1042.960938 952.539062 1049.109375 954.910156 C 1055.25 957.269531 1058.308594 964.179688 1055.941406 970.320312 Z M 1055.941406 970.320312 "/>
<path fill-rule="nonzero" fill="rgb(0%, 0%, 0%)" fill-opacity="1" d="M 1112.921875 963.78125 L 1114.308594 959.410156 C 1110.769531 990.050781 1107.050781 1023.519531 1092.460938 1051.738281 C 1077.859375 1079.988281 1052.828125 1102.140625 1030 1122.519531 C 1025.089844 1126.910156 1017.558594 1126.480469 1013.171875 1121.570312 C 1008.789062 1116.660156 1009.210938 1109.121094 1014.121094 1104.730469 C 1037.699219 1083.679688 1059.070312 1064.410156 1071.269531 1040.800781 C 1083.488281 1017.160156 1086.960938 988.328125 1090.621094 956.671875 C 1090.800781 955.140625 1091.269531 953.648438 1092.019531 952.300781 C 1095.179688 946.53125 1102.429688 944.421875 1108.199219 947.589844 C 1113.980469 950.761719 1116.089844 958.011719 1112.921875 963.78125 Z M 1112.921875 963.78125 "/>
</svg>
